<svg xmlns="http://www.w3.org/2000/svg" xmlns:xlink="http://www.w3.org/1999/xlink" width="24" height="24" viewBox="0 0 24 24">
    <defs>
        <path id="prefix__a" d="M21.098 13.692l2.054 1.185c.235.135.343.415.263.674-.533 1.718-1.444 3.27-2.636 4.558-.183.2-.48.244-.714.109l-2.053-1.185c-.863.74-1.856 1.314-2.928 1.693v2.37c0 .27-.187.505-.452.565-1.684.378-3.494.398-5.263 0-.265-.06-.453-.294-.453-.565v-2.37c-1.072-.38-2.065-.953-2.928-1.693l-2.053 1.185c-.234.135-.53.09-.715-.109-1.19-1.288-2.102-2.84-2.635-4.558-.08-.259.028-.539.263-.674l2.054-1.185c-.207-1.119-.207-2.265 0-3.384L.848 9.123c-.235-.135-.343-.415-.263-.674.533-1.718 1.444-3.27 2.636-4.558.183-.2.48-.244.714-.109l2.053 1.185c.863-.74 1.856-1.313 2.928-1.693V.904c0-.27.187-.505.452-.565 1.684-.378 3.494-.398 5.263 0 .265.06.453.294.453.565v2.37c1.072.38 2.065.953 2.928 1.693l2.053-1.185c.234-.135.53-.09.715.109 1.19 1.288 2.102 2.84 2.635 4.558.08.259-.028.539-.263.674l-2.054 1.185c.207 1.119.207 2.265 0 3.384zM15.855 12c0-2.126-1.73-3.855-3.855-3.855-2.126 0-3.855 1.73-3.855 3.855 0 2.126 1.73 3.855 3.855 3.855 2.126 0 3.855-1.73 3.855-3.855z"/>
    </defs>
    <g fill="none" fill-rule="evenodd">
        <mask id="prefix__b" fill="#fff">
            <use xlink:href="#prefix__a"/>
        </mask>
        <g fill="#D3D3D3" mask="url(#prefix__b)">
            <path d="M0 0H24V24H0z"/>
        </g>
    </g>
</svg>
