<svg xmlns="http://www.w3.org/2000/svg" xmlns:xlink="http://www.w3.org/1999/xlink" width="22" height="24" viewBox="0 0 22 24">
    <defs>
        <path id="prefix__a" d="M17.95 5.27v-.507c0-2.04-1.895-3.588-3.884-3.066-1.2-2.316-4.402-2.22-5.52.035-1.931-.494-3.855.979-3.855 3.04v5.9c-.934-.347-2.026-.236-2.905.416-1.373 1.02-1.674 2.963-.68 4.358l5.612 7.879c.281.394.736.628 1.22.628h10.428c.697 0 1.302-.481 1.458-1.16l1.412-6.127c.162-.701.244-1.418.244-2.137V8.374c0-1.9-1.662-3.368-3.53-3.104zm1.284 9.26c0 .548-.063 1.097-.186 1.631l-1.278 5.547H8.323l-5.389-7.565c-.675-.948.703-2.001 1.375-1.058l1.27 1.782c.42.59 1.358.294 1.358-.435v-9.66c0-1.2 1.71-1.16 1.71.032v7.173c0 .413.336.748.749.748h.32c.414 0 .75-.335.75-.748V3.135c0-1.201 1.71-1.161 1.71.032v8.81c0 .413.335.748.749.748h.32c.414 0 .75-.335.75-.748V4.73c0-1.201 1.71-1.16 1.71.032v7.214c0 .413.335.748.748.748h.321c.414 0 .749-.335.749-.748v-3.57c0-1.228 1.71-1.2 1.71-.033v6.155z"/>
    </defs>
    <g fill="none" fill-rule="evenodd">
        <mask id="prefix__b" fill="#fff">
            <use xlink:href="#prefix__a"/>
        </mask>
        <g fill="#D3D3D3" mask="url(#prefix__b)">
            <path d="M0 0H24V24H0z" transform="translate(-1)"/>
        </g>
    </g>
</svg>
