<svg xmlns="http://www.w3.org/2000/svg" xmlns:xlink="http://www.w3.org/1999/xlink" width="37" height="41" viewBox="0 0 37 41">
    <defs>
        <path id="prefix__a" d="M0 0.037L36.884 0.037 36.884 30 0 30z"/>
    </defs>
    <g fill="none" fill-rule="evenodd">
        <g transform="translate(0 11)">
            <mask id="prefix__b" fill="#fff">
                <use xlink:href="#prefix__a"/>
            </mask>
            <path fill="#7AC44B" d="M10.143 1.832c-1.115 0-2.241.148-3.3.526-2.05.731-3.583 2.25-4.554 4.512-.952 2.217-.983 4.326-.093 6.267 1.776 3.872 6.718 6.165 8.519 6.892 1.368-2.947 3.488-7.557 3.712-8.384-.004-.04-.006-.08-.008-.119l-.003-.051c-.198.015-.637.099-1.503.465l-.293.124c-1.856.789-3.776 1.605-5.238 1.026-.632-.25-1.1-.727-1.392-1.418-.461-1.093-.524-2.074-.186-2.916.286-.711.849-1.27 1.585-1.571.66-.27 5.538-2.308 9.451-3.944-1.445-.567-4.038-1.409-6.697-1.409m12.611 9.857c.234.535 2.04 4.682 3.572 8.398.783-.435 1.588-.86 2.367-1.27 1.363-.718 2.651-1.397 3.255-1.86 2.06-1.583 5.15-6.088 2.102-11.816-1.324-2.488-3.634-3.696-6.87-3.585-2.53.085-4.695.97-4.717.979l-1.73.724 8.884 3.785c.908.338 2.436 1.507 1.86 3.577-.373 1.34-.988 2.218-1.828 2.61-.773.36-1.487.193-1.844.061l-.005-.001-.101-.04c-1.435-.572-3.933-1.511-4.532-1.601-.214-.032-.349.007-.413.04M25.56 22.29c-1.46.895-2.682 1.809-3.048 2.59-.382.818-.4 1.608-.05 2.283.329.635.974 1.12 1.683 1.264.809.164 1.819-.151 2.4-.75.444-.46.585-1.002.418-1.612-.181-.664-.72-2.08-1.403-3.775m-14.082-.252l-.174.372-.383.82c-.935 2.011-.802 4.014.323 4.872.522.397 1.676.56 2.633.129.545-.245 1.205-.776 1.258-1.914.082-1.75-2.204-3.443-3.657-4.279M12.63 30c-.877 0-1.726-.24-2.337-.705-1.718-1.31-2.031-3.998-.78-6.689l.384-.822.176-.377c-.755-.305-1.959-.84-3.28-1.62-2.946-1.736-4.966-3.764-6.005-6.026-1.075-2.34-1.05-4.855.075-7.476C2.01 3.617 3.844 1.817 6.318.936 8.638.11 11.436.108 14.633.931c2.225.573 3.842 1.351 4.063 1.46l.088.038 3.072-1.284c.099-.041 2.417-.995 5.225-1.099 3.85-.142 6.734 1.378 8.34 4.397 3.517 6.608-.109 11.852-2.518 13.702-.708.544-1.99 1.22-3.476 2.003-.789.415-1.664.877-2.522 1.358.743 1.837 1.346 3.416 1.552 4.17.306 1.119.025 2.198-.79 3.04-.953.985-2.496 1.464-3.838 1.191-1.175-.239-2.202-1.01-2.747-2.06-.561-1.085-.553-2.361.024-3.594.54-1.156 2.06-2.3 3.872-3.39-1.392-3.386-3.083-7.297-3.669-8.632-.214-.488-.146-1.026.182-1.44.403-.508 1.135-.752 1.911-.635.949.143 4.192 1.42 4.869 1.69l.045.018c.105.046.38.136.668.002.403-.188.759-.771 1.001-1.642.34-1.22-.718-1.69-.933-1.773l-.035-.014L18.78 4.075c-4.04 1.689-10.052 4.2-10.791 4.504-.418.171-1.31.76-.568 2.516.172.408.392.535.543.594.86.34 2.624-.409 4.04-1.01l.296-.126c1.506-.638 2.41-.752 3.023-.382.588.354.624.973.64 1.27.003.04.004.077.009.11.05.343.09.618-3.852 9.108 1.432.806 4.69 2.951 4.561 5.728-.068 1.48-.834 2.623-2.156 3.218-.59.265-1.25.395-1.894.395" mask="url(#prefix__b)"/>
        </g>
        <path fill="#7AC44B" d="M19 1.496c-1.932 0-3.504 1.572-3.504 3.504S17.068 8.504 19 8.504 22.504 6.932 22.504 5 20.932 1.496 19 1.496M19 10c-2.757 0-5-2.243-5-5s2.243-5 5-5 5 2.243 5 5-2.243 5-5 5"/>
    </g>
</svg>
