<?xml version="1.0" encoding="UTF-8"?>
<svg width="27px" height="27px" viewBox="0 0 27 27" version="1.1" xmlns="http://www.w3.org/2000/svg" xmlns:xlink="http://www.w3.org/1999/xlink">
    <title>icon_medication</title>
    <defs>
        <polygon id="path-1" points="9.94511687e-06 0.00905487805 20.9949681 0.00905487805 20.9949681 21.2133342 9.94511687e-06 21.2133342"></polygon>
        <polygon id="path-3" points="0.02327325 0.0155609023 12.9738375 0.0155609023 12.9738375 13 0.02327325 13"></polygon>
    </defs>
    <g id="Symbols" stroke="none" stroke-width="1" fill="none" fill-rule="evenodd">
        <g id="Main-Navigation" transform="translate(-737.000000, -31.000000)">
            <g id="Group-5-Copy" transform="translate(715.000000, 31.000000)">
                <g id="icon_medication" transform="translate(22.000000, 0.000000)">
                    <g id="Group-3">
                        <mask id="mask-2" fill="white">
                            <use xlink:href="#path-1"></use>
                        </mask>
                        <g id="Clip-2"></g>
                        <path d="M17.0554765,10.5663474 C17.2669171,10.3570504 17.4733317,10.1514399 17.6811229,9.94731713 C18.077818,9.55763398 18.3961473,9.10802695 18.6240101,8.60192394 C18.9953835,7.77705689 19.1266655,6.91076377 19.0023942,6.00812179 C18.8227738,4.7037666 18.2022814,3.65906005 17.1606046,2.88076094 C16.1889384,2.15475376 15.0889994,1.87288834 13.8863973,2.01404742 C12.7298287,2.14974123 11.7893104,2.69562103 10.9814506,3.52844343 C9.78333018,4.76356114 8.56414573,5.97782029 7.35277226,7.19980842 C7.31410152,7.23884141 7.26301006,7.26529459 7.20996585,7.30313104 C9.06311982,9.17894605 10.8876229,11.0257208 12.7125101,12.8729159 C12.5145787,13.092238 12.3061473,13.3085849 12.113818,13.5387081 C11.153036,14.6883219 10.5297905,16.0033166 10.2321091,17.4774831 C10.0592753,18.3333307 10.0281595,19.1951611 10.110847,20.0624891 C10.1182098,20.1399729 10.0880863,20.1751576 10.0291198,20.2122503 C9.20179665,20.7329381 8.30660762,21.0570381 7.33683018,21.1666344 C5.62395366,21.3601824 4.06576006,20.952907 2.66983628,19.9298998 C1.9831747,19.4266426 1.41761524,18.8053809 0.97539878,18.074717 C0.239406402,16.8583881 -0.0863176829,15.5362466 0.0195146341,14.1131431 C0.145770732,12.4149978 0.83918689,10.9862027 2.03570671,9.79225234 C3.25377073,8.576829 4.45877378,7.34798503 5.67001921,6.12557649 C7.08153293,4.70108248 8.48507561,3.26840674 9.90843384,1.85610448 C10.8602845,0.911648356 12.0102265,0.334173508 13.3278805,0.108868739 C14.610321,-0.110388665 15.8556595,0.0280539525 17.0466412,0.558314079 C18.5199384,1.21427532 19.6163881,2.27815881 20.3349659,3.73605885 C20.6624186,4.40042819 20.8661442,5.10282802 20.9483195,5.83902194 C21.1337982,7.50043037 20.7672265,9.02672708 19.8296534,10.4080811 C19.8056442,10.4434598 19.7433485,10.4713359 19.6992677,10.4708831 C19.1961,10.4655472 18.6925802,10.4363452 18.1900848,10.4500246 C17.8188393,10.4601143 17.4489704,10.5239512 17.0554765,10.5663474" id="Fill-1" fill="#D3D3D3" mask="url(#mask-2)"></path>
                    </g>
                    <g id="Group-6" transform="translate(14.000000, 14.000000)">
                        <mask id="mask-4" fill="white">
                            <use xlink:href="#path-3"></use>
                        </mask>
                        <g id="Clip-5"></g>
                        <path d="M0.02327325,11.2346586 C3.75274575,7.49535038 7.48309575,3.75512982 11.2127958,0.0155609023 C13.5710283,2.86096441 13.7540683,7.59677644 10.5744633,10.7166787 C7.40802075,13.8237113 2.74852825,13.5236687 0.02327325,11.2346586" id="Fill-4" fill="#D3D3D3" mask="url(#mask-4)"></path>
                    </g>
                    <path d="M12.7638911,24 C10.2505342,20.9214083 10.3931125,16.2446239 13.384612,13.3085853 C16.5605824,10.191501 21.24165,10.4537073 24,12.7666226 C20.2566859,16.5090158 16.5127518,20.2520287 12.7638911,24" id="Fill-7" fill="#D3D3D3"></path>
                </g>
            </g>
        </g>
    </g>
</svg>