<svg xmlns="http://www.w3.org/2000/svg" xmlns:xlink="http://www.w3.org/1999/xlink" width="25" height="16" viewBox="0 0 25 16">
    <defs>
        <path id="prefix__a" d="M8.25 4.55C8.25 2.479 9.929.8 12 .8c2.071 0 3.75 1.679 3.75 3.75 0 2.071-1.679 3.75-3.75 3.75-2.071 0-3.75-1.679-3.75-3.75zM1.8 6.2c0-1.657 1.343-3 3-3s3 1.343 3 3-1.343 3-3 3-3-1.343-3-3zm14.4 0c0-1.657 1.343-3 3-3s3 1.343 3 3-1.343 3-3 3-3-1.343-3-3zm-.825 2.85c1.45 0 2.625 1.175 2.625 2.625V14.3c0 .497-.403.9-.9.9H6.9c-.497 0-.9-.403-.9-.9v-2.625c0-1.45 1.175-2.625 2.625-2.625h.67c1.663 1 3.747 1.001 5.41 0h.67zM4.8 11.675c0-.45.078-.88.22-1.28-.822.042-1.654-.155-2.385-.595H2.1c-1.16 0-2.1.94-2.1 2.1v1.2c0 .497.403.9.9.9h3.9v-2.325zM21.9 9.8h-.535c-.731.44-1.564.637-2.386.594.147.411.221.845.221 1.281V14h3.9c.497 0 .9-.403.9-.9v-1.2c0-1.16-.94-2.1-2.1-2.1z"/>
    </defs>
    <g fill="none" fill-rule="evenodd" transform="translate(.5)">
        <mask id="prefix__b" fill="#fff">
            <use xlink:href="#prefix__a"/>
        </mask>
        <g fill="#D3D3D3" mask="url(#prefix__b)">
            <path d="M0 0H24V24H0z" transform="translate(0 -4)"/>
        </g>
    </g>
</svg>
