<svg xmlns="http://www.w3.org/2000/svg" xmlns:xlink="http://www.w3.org/1999/xlink" width="23" height="24" viewBox="0 0 23 24">
    <defs>
        <path id="prefix__a" d="M6.5 11.438V9.562c0-.31.252-.562.563-.562h1.875c.31 0 .562.252.562.563v1.874c0 .311-.252.563-.563.563H7.063c-.311 0-.563-.252-.563-.563zm6.563.562h1.874c.311 0 .563-.252.563-.563V9.563c0-.311-.252-.563-.563-.563h-1.874c-.311 0-.563.252-.563.563v1.874c0 .311.252.563.563.563zM9.5 15.938v-1.876c0-.31-.252-.562-.563-.562H7.063c-.311 0-.563.252-.563.563v1.874c0 .311.252.563.563.563h1.875c.31 0 .562-.252.562-.563zm3.563.562h1.874c.311 0 .563-.252.563-.563v-1.874c0-.311-.252-.563-.563-.563h-1.874c-.311 0-.563.252-.563.563v1.874c0 .311.252.563.563.563zm8.437 5.813V24H.5v-1.688c0-.31.252-.562.563-.562h.914V3.986c0-.545.503-.986 1.125-.986H7.25V1.125C7.25.504 7.754 0 8.375 0h5.25c.621 0 1.125.504 1.125 1.125V3h4.148c.622 0 1.125.441 1.125.986V21.75h.915c.31 0 .562.252.562.563zm-17.273-.61H9.5v-3.14c0-.311.252-.563.563-.563h1.874c.311 0 .563.252.563.563v3.14h5.273V5.25H14.75v1.125c0 .621-.504 1.125-1.125 1.125h-5.25c-.621 0-1.125-.504-1.125-1.125V5.25H4.227v16.453zM12.969 3H11.75V1.781c0-.155-.126-.281-.281-.281h-.938c-.155 0-.281.126-.281.281V3H9.031c-.155 0-.281.126-.281.281v.938c0 .155.126.281.281.281h1.219v1.219c0 .155.126.281.281.281h.938c.155 0 .281-.126.281-.281V4.5h1.219c.155 0 .281-.126.281-.281V3.28c0-.155-.126-.281-.281-.281z"/>
    </defs>
    <g fill="none" fill-rule="evenodd" transform="translate(.5)">
        <mask id="prefix__b" fill="#fff">
            <use xlink:href="#prefix__a"/>
        </mask>
        <g fill="#D3D3D3" mask="url(#prefix__b)">
            <path d="M0 0H24V24H0z" transform="translate(-1)"/>
        </g>
    </g>
</svg>
